# xmcd CD database file
#
# Track frame offsets:
#	150
#	14702
#	28240
#	40327
#	57260
#	78915
#	94610
#	109132
#	123147
#	149030
#	164917
#	178062
#	201157
#	216667
#
# Disc length: 3129 seconds
#
# Revision: 2
# Processed by: cddbd v1.5.1PL2 Copyright (c) Steve Scherf et al.
# Submitted via: CDex 1.51
#
DISCID=d70c370e
DTITLE=Moonshine Willy - Bold Displays of Imperfection
DYEAR=1996
DGENRE=Country
TTITLE0=Look At Her
TTITLE1=Eatin' Crow
TTITLE2=Message From The Grave
TTITLE3=Fork In The Road
TTITLE4=River
TTITLE5=Glorybone
TTITLE6=Funny Things
TTITLE7=I'll Be The First
TTITLE8=Sky Above Me
TTITLE9=Gone Far Away
TTITLE10=Brady's Leap
TTITLE11=Spaghetti
TTITLE12=All The Way Home
TTITLE13=X-Ray Vision
EXTD=Kim Docter - Vox/Guitar/Accordian\nMike Luke - Vox/Bass\nNancy Rideout - Guitar/Mandolin/Banjo\nRachael Ferro - Fiddle/Mandolin\nChris Ganey - Drums YEAR: 1996
EXTT0=
EXTT1=
EXTT2=
EXTT3=
EXTT4=
EXTT5=
EXTT6=
EXTT7=
EXTT8=
EXTT9=
EXTT10=
EXTT11=
EXTT12=
EXTT13=
PLAYORDER=
